<?xml version="1.0" encoding="utf-8"?>
<!-- Generator: Adobe Illustrator 20.0.0, SVG Export Plug-In . SVG Version: 6.00 Build 0)  -->
<svg version="1.1" id="Layer_1" xmlns="http://www.w3.org/2000/svg" xmlns:xlink="http://www.w3.org/1999/xlink" x="0px" y="0px"
	 viewBox="0 0 960 1194" style="enable-background:new 0 0 960 1194;" xml:space="preserve">
<style type="text/css">
	.st0{fill:#FFFFFF;}
	.st1{fill:none;stroke:#FFFFFF;stroke-width:7;stroke-miterlimit:10;}
	.st2{fill:#E997C1;}
</style>
<rect x="183.7" y="543.3" class="st0" width="390.1" height="7"/>
<rect x="183.7" y="644.6" class="st0" width="394.7" height="7"/>
<rect x="477.8" y="737.7" class="st0" width="219.7" height="7"/>
<path class="st1" d="M773,961.4"/>
<path class="st1" d="M183.7,961.4"/>
<g>
	<rect x="203" y="568.1" class="st0" width="7" height="391.3"/>
	<g>
		<path class="st0" d="M206.5,550.8c3,8.2,8.2,18.3,13.6,24.5l-13.6-4.9l-13.6,4.9C198.3,569.1,203.5,558.9,206.5,550.8z"/>
	</g>
</g>
<path class="st0" d="M610.4,632.8h-13.9v41.6h36.6v-54.7h-22.7V632.8z M627.1,661.6h-25.4v-3.9h25.4V661.6z M627.1,651.9h-25.4V648
	h25.4V651.9z M627.1,642.2h-25.4v-3.9h25.4V642.2z"/>
<polygon class="st0" points="606.4,622.3 599.5,628.9 606.4,628.9 "/>
<g>
	<polygon class="st0" points="606.4,622.3 599.5,628.9 606.4,628.9 	"/>
	<path class="st0" d="M614.8,606.4c-22.5,0-40.7,18.2-40.7,40.7s18.2,40.7,40.7,40.7c22.5,0,40.7-18.2,40.7-40.7
		S637.2,606.4,614.8,606.4z M637,678.3h-44.4V630l15.1-14.2H637V678.3z"/>
</g>
<path class="st0" d="M610.4,619.8v13.1h-13.9v41.6h36.6v-54.7H610.4z M627.1,661.6h-25.4v-3.9h25.4V661.6z M627.1,651.9h-25.4V648
	h25.4V651.9z M627.1,642.2h-25.4v-3.9h25.4V642.2z"/>
<path class="st0" d="M614.4,505.9c-22.5,0-40.7,18.2-40.7,40.7c0,22.5,18.2,40.7,40.7,40.7c22.5,0,40.7-18.2,40.7-40.7
	C655.1,524.1,636.9,505.9,614.4,505.9z M580.9,551.3h-3.6v-3.9h3.6V551.3z M588.2,551.3h-3.6v-3.9h3.6V551.3z M595.4,551.3h-3.6
	v-3.9h3.6V551.3z M602.7,551.3h-3.6v-3.9h3.6V551.3z M610,551.3h-3.6v-3.9h3.6V551.3z M633.3,551.4l4,16.6l-7.6-15.3l-7.6,15.3
	l4-16.6l-15.6,6.8l13.7-10.1l-16.4-4.8l17,1.1l-9.4-14.2l12.4,11.8l1.9-17l1.9,17l12.4-11.8l-9.4,14.2l17-1.1l-16.4,4.8l13.7,10.1
	L633.3,551.4z M613.6,551.3v-3.9h3.6v3.9H613.6z"/>
<g>
	<path class="st0" d="M763.8,714.8l-11.6,56.4h-12.6l-7.1-34.7h-12.7v-6.3c0-0.6-0.2-0.9-0.3-1.1c-0.1,0-0.2,0-0.2,0
		c-0.1,0.4-0.2,0.9-0.2,1.7v24.9c0,0.3,0,0.7,0.1,1.1c0.1,0,0.1,0,0.2,0c0,0,0.1,0,0.3-0.1c0,0,0,0,0-0.1c0,0,0.1-0.2,0.1-0.8v-6.3
		h14.8v6.9c0,2-0.4,4-1.2,5.8c-0.8,1.8-1.8,3.4-3.2,4.8c-1.3,1.4-2.9,2.5-4.7,3.3c-1.9,0.8-3.9,1.3-6,1.3c-1.7,0-3.4-0.2-5-0.7
		c-1.9-0.5-3.6-1.4-5.2-2.6c-1.5-1.3-2.8-2.9-3.8-4.9c-1-2-1.5-4.4-1.5-7.2v-26.8c0-2.1,0.4-4.1,1.1-5.9c0.7-1.9,1.8-3.5,3.2-4.9
		c1.4-1.4,3-2.4,4.9-3.2c1.9-0.8,3.9-1.1,6.1-1.1c2.1,0,4.1,0.4,6,1.2c1.1,0.5,2.2,1.1,3.1,1.8l-0.5-2.5h15.5l2.3,14l2.3-14h15.4
		c-7.5-8.6-18.5-14.1-30.8-14.1c-22.5,0-40.7,18.2-40.7,40.7s18.2,40.7,40.7,40.7s40.7-18.2,40.7-40.7
		C773.5,731.1,769.9,721.9,763.8,714.8z"/>
	<g>
		<path class="st0" d="M730.8,756.3c0,1.5-0.3,2.9-0.9,4.3c-0.6,1.4-1.4,2.6-2.4,3.6c-1,1-2.2,1.8-3.5,2.5c-1.3,0.6-2.8,0.9-4.3,0.9
			c-1.3,0-2.7-0.2-4-0.5c-1.4-0.4-2.6-1-3.7-1.9c-1.1-0.9-2-2.1-2.7-3.5c-0.7-1.5-1.1-3.3-1.1-5.5v-26.8c0-1.6,0.3-3.1,0.8-4.4
			c0.5-1.4,1.3-2.6,2.3-3.6c1-1,2.2-1.8,3.6-2.4c1.4-0.6,2.9-0.9,4.6-0.9c1.6,0,3.1,0.3,4.4,0.9c1.4,0.6,2.6,1.4,3.6,2.4
			c1,1,1.8,2.3,2.4,3.7c0.6,1.4,0.9,3,0.9,4.7v2.7h-7v-2.3c0-1.4-0.4-2.6-1.2-3.6c-0.8-1-1.8-1.5-3.1-1.5c-1.7,0-2.9,0.5-3.5,1.6
			c-0.6,1.1-0.9,2.4-0.9,4.1v24.9c0,1.4,0.3,2.6,0.9,3.6s1.7,1.4,3.3,1.4c0.5,0,0.9-0.1,1.5-0.2c0.5-0.2,1-0.4,1.4-0.8
			c0.4-0.4,0.8-0.9,1.1-1.5c0.3-0.6,0.4-1.4,0.4-2.4v-2.4h7V756.3z"/>
		<polygon class="st0" points="749,767.2 742.8,767.2 732.9,718.6 740.3,718.6 745.9,752.5 746,752.5 751.6,718.6 759,718.6 		"/>
	</g>
</g>
<g>
	<rect x="446.6" y="546.8" class="st0" width="7" height="82.3"/>
	<g>
		<path class="st0" d="M450.1,646.4c-3-8.2-8.2-18.3-13.6-24.5l13.6,4.9l13.6-4.9C458.2,628.2,453.1,638.3,450.1,646.4z"/>
	</g>
</g>
<g>
	<path class="st0" d="M201.8,444.9c2.9,0.7,5.1,2,6.8,3.9c1.6,1.9,2.5,4.3,2.5,6.9c0,3.9-1.4,7-4.3,9.4s-6.3,3.5-10.3,3.5h-12.3
		v-43.2h12c4.2,0,7.4,0.9,9.8,2.7c2.3,1.8,3.5,4.4,3.5,7.7c0,2-0.7,3.9-2,5.5c-1.4,1.6-3.2,2.7-5.6,3.5V444.9z M189.2,442.6h5.9
		c6.2,0,9.2-2.2,9.2-6.6c0-2-0.8-3.5-2.3-4.6c-1.5-1.1-3.7-1.6-6.7-1.6h-6.2V442.6z M189.2,464.3h5.7c3.3,0,6-0.8,7.9-2.3
		c2-1.5,2.9-3.6,2.9-6.2c0-2.8-1-5-2.9-6.5c-1.9-1.5-4.7-2.3-8.3-2.3h-5.3V464.3z"/>
	<path class="st0" d="M251.4,468.6h-6.3L232.4,449h-5.6v19.6h-5v-43.2h12.2c4.1,0,7.4,1,9.7,3c2.4,2,3.6,4.8,3.6,8.3
		c0,2.6-0.9,5-2.6,7c-1.7,2.1-4.1,3.4-7.2,4.2L251.4,468.6z M226.9,444.6h6.3c2.7,0,4.8-0.7,6.5-2.2c1.7-1.4,2.5-3.3,2.5-5.4
		c0-4.8-2.9-7.2-8.8-7.2h-6.5V444.6z"/>
	<path class="st0" d="M281.5,468.6h-19.6v-4.4h7.4v-34.5h-7.4v-4.4h19.6v4.4h-7.2v34.5h7.2V468.6z"/>
	<path class="st0" d="M326.8,468.6h-5.3l-4.8-15.1h-14.2l-4.8,15.1h-5.2l14.1-43.2h6L326.8,468.6z M315.3,449.1l-5.7-17.9l-5.6,17.9
		H315.3z"/>
	<path class="st0" d="M360.3,468.6h-5.6l-15.5-34.1v34.1h-5v-43.2h5.6l15.6,33.8v-33.8h4.9V468.6z"/>
	<path class="st0" d="M439.7,468.6h-6.3L420.8,449h-5.6v19.6h-5v-43.2h12.2c4.1,0,7.4,1,9.7,3s3.6,4.8,3.6,8.3c0,2.6-0.9,5-2.6,7
		c-1.7,2.1-4.1,3.4-7.2,4.2L439.7,468.6z M415.2,444.6h6.3c2.7,0,4.8-0.7,6.5-2.2c1.7-1.4,2.5-3.3,2.5-5.4c0-4.8-2.9-7.2-8.8-7.2
		h-6.5V444.6z"/>
	<path class="st0" d="M460.2,424.6c4.8,0,8.5,1.9,11.1,5.7c2.5,3.8,3.8,9.4,3.8,16.7c0,7.3-1.3,12.8-3.8,16.7
		c-2.5,3.8-6.2,5.8-11.1,5.8c-4.8,0-8.5-1.9-11-5.7s-3.8-9.4-3.8-16.7c0-7.3,1.3-12.9,3.8-16.7C451.7,426.5,455.3,424.6,460.2,424.6
		z M460.2,465c6.4,0,9.6-6,9.6-18c0-12-3.2-18.1-9.6-18.1c-3.1,0-5.5,1.6-7.1,4.7s-2.4,7.6-2.4,13.4c0,5.9,0.8,10.3,2.4,13.4
		S457.1,465,460.2,465z"/>
	<path class="st0" d="M510.5,468.6h-23.5v-43.2h5v38.9h18.5V468.6z"/>
	<path class="st0" d="M549.6,465.9c-3.4,2.3-7.3,3.5-11.8,3.5c-5.6,0-9.9-1.9-12.8-5.8c-2.9-3.8-4.4-9.4-4.4-16.7
		c0-7,1.4-12.5,4.2-16.5s7.1-6,12.9-6c2.1,0,4.1,0.3,6.2,0.8c2,0.5,3.7,1.2,4.9,2.1l-1.7,4c-2.9-1.6-6-2.5-9.5-2.5
		c-4,0-6.9,1.4-8.9,4.3c-1.9,2.9-2.9,7.5-2.9,13.7c0,12,3.9,18,11.8,18c3.3,0,6.7-1,10.2-3.1L549.6,465.9z"/>
	<path class="st0" d="M586.3,429l-20.6,35.3h20.2v4.4H560v-3.5l20.5-35.3h-19.6v-4.4h25.4V429z"/>
	<path class="st0" d="M627,425.4l-13.5,24.7v18.5h-5v-18.5L595,425.4h5.7l10.3,19.5l10.4-19.5H627z"/>
	<path class="st0" d="M661.7,468.6h-5.6l-15.5-34.1v34.1h-5v-43.2h5.6l15.6,33.8v-33.8h4.9V468.6z"/>
	<path class="st0" d="M695.5,430.2c-2.6-0.9-5-1.3-7.3-1.3c-2.6,0-4.7,0.6-6.4,1.8c-1.6,1.2-2.5,2.9-2.5,5.1c0,2.6,2.2,4.9,6.5,6.9
		c3.2,1.5,5.3,2.5,6.3,3.1c1,0.6,2.1,1.4,3.1,2.4c1.1,1,1.9,2.2,2.6,3.5c0.6,1.4,1,2.9,1,4.6c0,4.2-1.4,7.5-4.2,9.8
		c-2.8,2.3-6.2,3.5-10,3.5c-3.7,0-7-0.7-9.8-2.2l1-4.3c3.3,1.5,6.2,2.2,8.6,2.2c2.9,0,5.2-0.7,6.9-2.2s2.6-3.5,2.6-6.1
		c0-1.9-0.6-3.6-1.7-4.9s-3.2-2.7-6.2-4.1c-3.1-1.4-5.1-2.4-6-2.9s-1.8-1.2-2.7-2.2c-0.9-0.9-1.6-2-2.1-3.1
		c-0.5-1.1-0.7-2.4-0.7-3.7c0-3.6,1.3-6.4,3.9-8.4c2.6-2,5.8-3,9.8-3c2.9,0,5.7,0.4,8.6,1.3L695.5,430.2z"/>
	<path class="st0" d="M742.1,468.6h-6.3l-14.6-21.2l-4.6,5v16.2h-5v-43.2h5v20.7l19.2-20.7h5.8l-16.9,18.3L742.1,468.6z"/>
	<path class="st0" d="M771.2,468.6h-19.6v-4.4h7.4v-34.5h-7.4v-4.4h19.6v4.4h-7.2v34.5h7.2V468.6z"/>
</g>
<g>
	<path class="st0" d="M200.4,531.4H197l-6.9-10.6h-3v10.6h-2.7V508h6.6c2.2,0,4,0.5,5.3,1.6c1.3,1.1,1.9,2.6,1.9,4.5
		c0,1.4-0.5,2.7-1.4,3.8c-0.9,1.1-2.2,1.9-3.9,2.3L200.4,531.4z M187.1,518.4h3.4c1.4,0,2.6-0.4,3.5-1.2c0.9-0.8,1.3-1.8,1.3-2.9
		c0-2.6-1.6-3.9-4.8-3.9h-3.5V518.4z"/>
	<path class="st0" d="M217.8,531.4h-12.2V508h12.1v2.4h-9.4v7.3h9v2.4h-9v9h9.5V531.4z"/>
	<path class="st0" d="M236.9,510.6c-1.4-0.5-2.7-0.7-4-0.7c-1.4,0-2.6,0.3-3.5,1c-0.9,0.6-1.3,1.6-1.3,2.8c0,1.4,1.2,2.7,3.5,3.7
		c1.7,0.8,2.9,1.4,3.4,1.7c0.6,0.3,1.1,0.7,1.7,1.3c0.6,0.5,1,1.2,1.4,1.9c0.3,0.7,0.5,1.6,0.5,2.5c0,2.3-0.8,4-2.3,5.3
		c-1.5,1.3-3.3,1.9-5.4,1.9c-2,0-3.8-0.4-5.3-1.2l0.6-2.3c1.8,0.8,3.3,1.2,4.7,1.2c1.5,0,2.8-0.4,3.7-1.2c0.9-0.8,1.4-1.9,1.4-3.3
		c0-1-0.3-1.9-0.9-2.6c-0.6-0.7-1.7-1.5-3.4-2.2c-1.7-0.8-2.8-1.3-3.3-1.6c-0.5-0.3-1-0.7-1.5-1.2c-0.5-0.5-0.9-1.1-1.1-1.7
		s-0.4-1.3-0.4-2c0-1.9,0.7-3.4,2.1-4.5s3.2-1.6,5.3-1.6c1.6,0,3.1,0.2,4.6,0.7L236.9,510.6z"/>
	<path class="st0" d="M258.6,531.4h-12.2V508h12.1v2.4h-9.4v7.3h9v2.4h-9v9h9.5V531.4z"/>
	<path class="st0" d="M282,531.4h-2.9l-2.6-8.2h-7.7l-2.6,8.2h-2.8l7.7-23.4h3.3L282,531.4z M275.8,520.8l-3.1-9.7l-3.1,9.7H275.8z"
		/>
	<path class="st0" d="M302.4,531.4H299l-6.9-10.6h-3v10.6h-2.7V508h6.6c2.2,0,4,0.5,5.3,1.6c1.3,1.1,1.9,2.6,1.9,4.5
		c0,1.4-0.5,2.7-1.4,3.8c-0.9,1.1-2.2,1.9-3.9,2.3L302.4,531.4z M289.1,518.4h3.4c1.4,0,2.6-0.4,3.5-1.2c0.9-0.8,1.3-1.8,1.3-2.9
		c0-2.6-1.6-3.9-4.8-3.9h-3.5V518.4z"/>
	<path class="st0" d="M321.1,530c-1.8,1.3-4,1.9-6.4,1.9c-3,0-5.3-1-6.9-3.1c-1.6-2.1-2.4-5.1-2.4-9c0-3.8,0.8-6.8,2.3-8.9
		c1.5-2.2,3.9-3.2,7-3.2c1.1,0,2.2,0.1,3.4,0.4s2,0.7,2.7,1.1l-0.9,2.1c-1.6-0.9-3.3-1.3-5.1-1.3c-2.2,0-3.8,0.8-4.8,2.3
		c-1.1,1.6-1.6,4-1.6,7.4c0,6.5,2.1,9.8,6.4,9.8c1.8,0,3.7-0.6,5.5-1.7L321.1,530z"/>
	<path class="st0" d="M340.7,531.4h-2.7v-11.6h-8v11.6h-2.7V508h2.7v9.4h8V508h2.7V531.4z"/>
</g>
<g>
	<path class="st0" d="M496.7,778.8c-1.8,1.3-4,1.9-6.4,1.9c-3,0-5.3-1-6.9-3.1s-2.4-5.1-2.4-9c0-3.8,0.8-6.8,2.3-8.9
		c1.5-2.2,3.9-3.2,7-3.2c1.1,0,2.2,0.1,3.4,0.4c1.1,0.3,2,0.7,2.7,1.1l-0.9,2.1c-1.6-0.9-3.3-1.3-5.1-1.3c-2.2,0-3.8,0.8-4.8,2.3
		c-1.1,1.6-1.6,4-1.6,7.4c0,6.5,2.1,9.8,6.4,9.8c1.8,0,3.7-0.6,5.5-1.7L496.7,778.8z"/>
	<path class="st0" d="M516.3,772.9c0,2.7-0.6,4.7-1.7,5.9s-2.8,1.9-5,1.9c-4.5,0-6.8-2.6-6.8-7.8v-16.1h2.7v15.9
		c0,3.7,1.4,5.6,4.1,5.6c1.4,0,2.4-0.4,3-1.3s1-2.3,1-4.3v-15.8h2.7V772.9z"/>
	<path class="st0" d="M539.3,780.2h-3.4l-6.9-10.6h-3v10.6h-2.7v-23.4h6.6c2.2,0,4,0.5,5.3,1.6c1.3,1.1,1.9,2.6,1.9,4.5
		c0,1.4-0.5,2.7-1.4,3.8c-0.9,1.1-2.2,1.9-3.9,2.3L539.3,780.2z M526,767.2h3.4c1.4,0,2.6-0.4,3.5-1.2c0.9-0.8,1.3-1.8,1.3-2.9
		c0-2.6-1.6-3.9-4.8-3.9H526V767.2z"/>
	<path class="st0" d="M559.7,780.2h-3.4l-6.9-10.6h-3v10.6h-2.7v-23.4h6.6c2.2,0,4,0.5,5.3,1.6c1.3,1.1,1.9,2.6,1.9,4.5
		c0,1.4-0.5,2.7-1.4,3.8c-0.9,1.1-2.2,1.9-3.9,2.3L559.7,780.2z M546.4,767.2h3.4c1.4,0,2.6-0.4,3.5-1.2c0.9-0.8,1.3-1.8,1.3-2.9
		c0-2.6-1.6-3.9-4.8-3.9h-3.5V767.2z"/>
	<path class="st0" d="M576,780.2h-10.6v-2.4h4v-18.7h-4v-2.4H576v2.4h-3.9v18.7h3.9V780.2z"/>
	<path class="st0" d="M598.8,778.8c-1.8,1.3-4,1.9-6.4,1.9c-3,0-5.3-1-6.9-3.1s-2.4-5.1-2.4-9c0-3.8,0.8-6.8,2.3-8.9
		c1.5-2.2,3.9-3.2,7-3.2c1.1,0,2.2,0.1,3.4,0.4c1.1,0.3,2,0.7,2.7,1.1l-0.9,2.1c-1.6-0.9-3.3-1.3-5.1-1.3c-2.2,0-3.8,0.8-4.8,2.3
		c-1.1,1.6-1.6,4-1.6,7.4c0,6.5,2.1,9.8,6.4,9.8c1.8,0,3.7-0.6,5.5-1.7L598.8,778.8z"/>
	<path class="st0" d="M618.3,772.9c0,2.7-0.6,4.7-1.7,5.9s-2.8,1.9-5,1.9c-4.5,0-6.8-2.6-6.8-7.8v-16.1h2.7v15.9
		c0,3.7,1.4,5.6,4.1,5.6c1.4,0,2.4-0.4,3-1.3s1-2.3,1-4.3v-15.8h2.7V772.9z"/>
	<path class="st0" d="M638.8,780.2H626v-23.4h2.7v21.1h10V780.2z"/>
	<path class="st0" d="M659.1,772.9c0,2.7-0.6,4.7-1.7,5.9s-2.8,1.9-5,1.9c-4.5,0-6.8-2.6-6.8-7.8v-16.1h2.7v15.9
		c0,3.7,1.4,5.6,4.1,5.6c1.4,0,2.4-0.4,3-1.3s1-2.3,1-4.3v-15.8h2.7V772.9z"/>
	<path class="st0" d="M680.3,780.2h-2.6v-20.1l-3.5,9.6h-2.6l-3.5-9.6v20.1h-2.6v-23.4h3.5l3.9,10.7l3.9-10.7h3.5V780.2z"/>
	<path class="st0" d="M549.4,797.6l-7.6,23.4h-3.3l-7.7-23.4h2.9l6.4,20.3l6.5-20.3H549.4z"/>
	<path class="st0" d="M565.8,821h-10.6v-2.4h4V800h-4v-2.4h10.6v2.4h-3.9v18.7h3.9V821z"/>
	<path class="st0" d="M589.6,799.8h-7.2V821h-2.7v-21.2h-7.3v-2.2h17.2V799.8z"/>
	<path class="st0" d="M610.7,821h-2.9l-2.6-8.2h-7.7l-2.6,8.2h-2.8l7.7-23.4h3.3L610.7,821z M604.5,810.5l-3.1-9.7l-3.1,9.7H604.5z"
		/>
	<path class="st0" d="M628.1,821h-12.2v-23.4H628v2.4h-9.4v7.3h9v2.4h-9v9h9.5V821z"/>
</g>
<g>
	<path class="st0" d="M221.2,663.3h5.9c2.2,0,4,0.6,5.4,1.7c1.4,1.1,2,2.7,2,4.7c0,2-0.7,3.6-2,4.8c-1.3,1.2-3.1,1.8-5.3,1.8h-3.3
		v10.5h-2.7V663.3z M223.9,673.9h3c3.2,0,4.8-1.3,4.8-4c0-1.2-0.4-2.2-1.3-3c-0.9-0.8-2-1.1-3.4-1.1h-3.1V673.9z"/>
	<path class="st0" d="M254.3,679.4c0,2.7-0.6,4.7-1.7,5.9c-1.1,1.3-2.8,1.9-5,1.9c-4.5,0-6.8-2.6-6.8-7.8v-16.1h2.7v15.9
		c0,3.7,1.4,5.6,4.1,5.6c1.4,0,2.4-0.4,3-1.3c0.6-0.9,1-2.3,1-4.3v-15.8h2.7V679.4z"/>
	<path class="st0" d="M270.8,673.9c1.6,0.4,2.8,1.1,3.7,2.1c0.9,1.1,1.3,2.3,1.3,3.8c0,2.1-0.8,3.8-2.3,5.1s-3.4,1.9-5.6,1.9h-6.7
		v-23.4h6.5c2.3,0,4,0.5,5.3,1.5c1.3,1,1.9,2.4,1.9,4.2c0,1.1-0.4,2.1-1.1,3C273.1,672.8,272.1,673.5,270.8,673.9L270.8,673.9z
		 M264,672.6h3.2c3.3,0,5-1.2,5-3.6c0-1.1-0.4-1.9-1.2-2.5c-0.8-0.6-2-0.9-3.6-0.9H264V672.6z M264,684.4h3.1c1.8,0,3.2-0.4,4.3-1.2
		c1.1-0.8,1.6-1.9,1.6-3.4c0-1.5-0.5-2.7-1.6-3.5c-1-0.8-2.5-1.2-4.5-1.2H264V684.4z"/>
	<path class="st0" d="M295.2,686.8h-12.8v-23.4h2.7v21.1h10V686.8z"/>
	<path class="st0" d="M314,686.8h-10.6v-2.4h4v-18.7h-4v-2.4H314v2.4h-3.9v18.7h3.9V686.8z"/>
	<path class="st0" d="M336.8,685.3c-1.8,1.3-4,1.9-6.4,1.9c-3,0-5.3-1-6.9-3.1s-2.4-5.1-2.4-9c0-3.8,0.8-6.8,2.3-8.9
		c1.5-2.2,3.9-3.2,7-3.2c1.1,0,2.2,0.1,3.4,0.4c1.1,0.3,2,0.7,2.7,1.1l-0.9,2.1c-1.6-0.9-3.3-1.3-5.1-1.3c-2.2,0-3.8,0.8-4.8,2.3
		c-1.1,1.6-1.6,4-1.6,7.4c0,6.5,2.1,9.8,6.4,9.8c1.8,0,3.7-0.6,5.5-1.7L336.8,685.3z"/>
	<path class="st0" d="M358.9,686.8h-2.9l-2.6-8.2h-7.7l-2.6,8.2h-2.8l7.7-23.4h3.3L358.9,686.8z M352.7,676.2l-3.1-9.7l-3.1,9.7
		H352.7z"/>
	<path class="st0" d="M378.6,665.5h-7.2v21.2h-2.7v-21.2h-7.3v-2.2h17.2V665.5z"/>
	<path class="st0" d="M395.6,686.8H385v-2.4h4v-18.7h-4v-2.4h10.6v2.4h-3.9v18.7h3.9V686.8z"/>
	<path class="st0" d="M410.8,662.9c2.6,0,4.6,1,6,3.1c1.4,2.1,2.1,5.1,2.1,9.1c0,3.9-0.7,7-2.1,9s-3.4,3.1-6,3.1c-2.6,0-4.6-1-6-3.1
		c-1.4-2.1-2.1-5.1-2.1-9s0.7-7,2.1-9S408.1,662.9,410.8,662.9z M410.8,684.8c3.5,0,5.2-3.3,5.2-9.8c0-6.5-1.7-9.8-5.2-9.8
		c-1.7,0-3,0.8-3.8,2.5c-0.9,1.7-1.3,4.1-1.3,7.2c0,3.2,0.4,5.6,1.3,7.3C407.8,684,409.1,684.8,410.8,684.8z"/>
	<path class="st0" d="M438.3,686.8h-3l-8.4-18.5v18.5h-2.7v-23.4h3l8.4,18.3v-18.3h2.7V686.8z"/>
	<path class="st0" d="M456.6,665.9c-1.4-0.5-2.7-0.7-4-0.7c-1.4,0-2.6,0.3-3.5,1c-0.9,0.6-1.3,1.6-1.3,2.8c0,1.4,1.2,2.7,3.5,3.7
		c1.7,0.8,2.9,1.4,3.4,1.7c0.6,0.3,1.1,0.7,1.7,1.3s1,1.2,1.4,1.9c0.3,0.7,0.5,1.6,0.5,2.5c0,2.3-0.8,4-2.3,5.3
		c-1.5,1.3-3.3,1.9-5.4,1.9c-2,0-3.8-0.4-5.3-1.2l0.6-2.3c1.8,0.8,3.3,1.2,4.7,1.2c1.5,0,2.8-0.4,3.7-1.2c0.9-0.8,1.4-1.9,1.4-3.3
		c0-1-0.3-1.9-0.9-2.6c-0.6-0.7-1.7-1.5-3.4-2.2c-1.7-0.8-2.8-1.3-3.3-1.6c-0.5-0.3-1-0.7-1.5-1.2s-0.9-1.1-1.1-1.7s-0.4-1.3-0.4-2
		c0-1.9,0.7-3.4,2.1-4.5s3.2-1.6,5.3-1.6c1.6,0,3.1,0.2,4.6,0.7L456.6,665.9z"/>
</g>
<g>
	<path class="st0" d="M545.2,1002.1h-2.9l-2.6-8.2H532l-2.6,8.2h-2.8l7.7-23.4h3.3L545.2,1002.1z M538.9,991.5l-3.1-9.7l-3.1,9.7
		H538.9z"/>
	<path class="st0" d="M559.1,989.2c1.6,0.4,2.8,1.1,3.7,2.1c0.9,1.1,1.3,2.3,1.3,3.8c0,2.1-0.8,3.8-2.3,5.1s-3.4,1.9-5.6,1.9h-6.7
		v-23.4h6.5c2.3,0,4,0.5,5.3,1.5c1.3,1,1.9,2.4,1.9,4.2c0,1.1-0.4,2.1-1.1,3S560.3,988.8,559.1,989.2L559.1,989.2z M552.2,988h3.2
		c3.3,0,5-1.2,5-3.6c0-1.1-0.4-1.9-1.2-2.5c-0.8-0.6-2-0.9-3.6-0.9h-3.4V988z M552.2,999.7h3.1c1.8,0,3.2-0.4,4.3-1.2
		s1.6-1.9,1.6-3.4c0-1.5-0.5-2.7-1.6-3.5c-1-0.8-2.5-1.2-4.5-1.2h-2.9V999.7z"/>
	<path class="st0" d="M576.6,978.2c2.6,0,4.6,1,6,3.1c1.4,2.1,2.1,5.1,2.1,9.1c0,3.9-0.7,7-2.1,9c-1.4,2.1-3.4,3.1-6,3.1
		c-2.6,0-4.6-1-6-3.1c-1.4-2.1-2.1-5.1-2.1-9s0.7-7,2.1-9C572,979.2,574,978.2,576.6,978.2z M576.6,1000.1c3.5,0,5.2-3.3,5.2-9.8
		c0-6.5-1.7-9.8-5.2-9.8c-1.7,0-3,0.8-3.8,2.5c-0.9,1.7-1.3,4.1-1.3,7.2c0,3.2,0.4,5.6,1.3,7.3
		C573.6,999.3,574.9,1000.1,576.6,1000.1z"/>
	<path class="st0" d="M603.8,994.7c0,2.7-0.6,4.7-1.7,5.9s-2.8,1.9-5,1.9c-4.5,0-6.8-2.6-6.8-7.8v-16.1h2.7v15.9
		c0,3.7,1.4,5.6,4.1,5.6c1.4,0,2.4-0.4,3-1.3s1-2.3,1-4.3v-15.8h2.7V994.7z"/>
	<path class="st0" d="M626.1,980.9h-7.2v21.2h-2.7v-21.2h-7.3v-2.2h17.2V980.9z"/>
	<path class="st0" d="M665.8,1002.1h-2.6V982l-3.5,9.6h-2.6l-3.5-9.6v20.1h-2.6v-23.4h3.5l3.9,10.7l3.9-10.7h3.5V1002.1z"/>
	<path class="st0" d="M684.9,1002.1h-12.2v-23.4h12.1v2.4h-9.4v7.3h9v2.4h-9v9h9.5V1002.1z"/>
</g>
<g>
	<g>
		<path class="st0" d="M568.5,727.1l-0.4-0.4c-2.5-2.6-4-5.9-4-9.1c0-3-3.5-6.4-6.5-6.5c-6.8-0.1-13.3-6.6-13.4-13.4
			c0-3-3.5-6.4-6.5-6.5c-6.8-0.1-13.3-6.6-13.4-13.4c0-3-3.5-6.4-6.5-6.5c-6.8-0.1-13.3-6.6-13.4-13.4c0-3-3.5-6.4-6.5-6.5l0.1-7
			c6.8,0.1,13.3,6.6,13.4,13.4c0,3,3.5,6.4,6.5,6.5c6.8,0.1,13.3,6.6,13.4,13.4c0,3,3.5,6.4,6.5,6.5c6.8,0.1,13.3,6.6,13.4,13.4
			c0,3,3.5,6.4,6.5,6.5c6.8,0.1,13.3,6.6,13.4,13.4c0,1.4,0.8,3,2.1,4.3l0.2,0.2l0.5,0.5L568.5,727.1z"/>
		<g>
			<path class="st0" d="M582.2,738.2c-7.5-4.3-18-8.8-26.2-10.2l13.7-4.9l7.4-12.5C576.9,719,579.4,730,582.2,738.2z"/>
		</g>
	</g>
</g>
<g>
	<g>
		<g>
			<path class="st0" d="M727.8,955.3v4.6h9.2v-4.6c0-2.9,2.4-5.3,5.3-5.3h16.9c-4.4-10.2-14.6-17.4-26.4-17.4s-22,7.2-26.4,17.4
				h16.1C725.4,950,727.8,952.4,727.8,955.3z"/>
			<path class="st0" d="M742.3,973.8c-2.9,0-5.3-2.4-5.3-5.3v-4.6h-9.2v4.6c0,2.9-2.4,5.3-5.3,5.3H707c4.6,9.6,14.5,16.3,25.8,16.3
				s21.2-6.6,25.8-16.3H742.3z"/>
		</g>
		<g>
			<path class="st0" d="M732.9,920.8c-22.5,0-40.7,18.2-40.7,40.7c0,22.5,18.2,40.7,40.7,40.7s40.7-18.2,40.7-40.7
				C773.5,939,755.3,920.8,732.9,920.8z M763.7,973.8H763c-4.9,11.9-16.6,20.3-30.2,20.3c-13.6,0-25.3-8.4-30.2-20.3H701
				c-2.9,0-5.3-2.4-5.3-5.3v-13.1c0-2.9,2.4-5.3,5.3-5.3h1.1c4.6-12.5,16.6-21.4,30.7-21.4c14,0,26.1,8.9,30.7,21.4h0.3
				c2.9,0,5.3,2.4,5.3,5.3v13.1C769,971.4,766.7,973.8,763.7,973.8z"/>
		</g>
	</g>
</g>
<path class="st2" d="M701,954c-0.7,0-1.3,0.6-1.3,1.3v13.1c0,0.7,0.6,1.3,1.3,1.3h21.5c0.7,0,1.3-0.6,1.3-1.3v-13.1
	c0-0.7-0.6-1.3-1.3-1.3H701z"/>
<path class="st2" d="M742.3,954c-0.7,0-1.3,0.6-1.3,1.3v13.1c0,0.7,0.6,1.3,1.3,1.3h21.5c0.7,0,1.3-0.6,1.3-1.3v-13.1
	c0-0.7-0.6-1.3-1.3-1.3H742.3z"/>
<rect x="183.4" y="957.8" class="st0" width="509.7" height="7"/>
</svg>
