<?xml version="1.0" encoding="utf-8"?>
<!-- Generator: Adobe Illustrator 20.0.0, SVG Export Plug-In . SVG Version: 6.00 Build 0)  -->
<svg version="1.1" id="Layer_1" xmlns="http://www.w3.org/2000/svg" xmlns:xlink="http://www.w3.org/1999/xlink" x="0px" y="0px"
	 viewBox="0 0 960 1194" style="enable-background:new 0 0 960 1194;" xml:space="preserve">
<style type="text/css">
	.st0{fill:none;stroke:#FFFFFF;stroke-width:7;stroke-miterlimit:10;}
	.st1{fill:#FFFFFF;}
	.st2{fill:#E997C1;}
</style>
<path class="st0" d="M773,961.4"/>
<path class="st0" d="M183.7,961.4"/>
<g>
	<path class="st1" d="M389,525.9h-13.9v41.6h36.6v-54.7H389V525.9z M405.7,554.7h-25.4v-3.9h25.4V554.7z M405.7,544.9h-25.4V541
		h25.4V544.9z M405.7,535.2h-25.4v-3.9h25.4V535.2z"/>
	<polygon class="st1" points="385.1,515.4 378.1,521.9 385.1,521.9 	"/>
	<g>
		<g>
			<path class="st1" d="M393.4,499.5c-22.5,0-40.7,18.2-40.7,40.7s18.2,40.7,40.7,40.7c22.5,0,40.7-18.2,40.7-40.7
				S415.9,499.5,393.4,499.5z M415.6,571.4h-44.4v-48.3l15.1-14.2h29.4V571.4z"/>
		</g>
	</g>
</g>
<path class="st1" d="M224.8,499.5c-22.5,0-40.7,18.2-40.7,40.7c0,22.5,18.2,40.7,40.7,40.7c22.5,0,40.7-18.2,40.7-40.7
	C265.5,517.7,247.3,499.5,224.8,499.5z M191.3,544.9h-3.6V541h3.6V544.9z M198.6,544.9h-3.6V541h3.6V544.9z M205.9,544.9h-3.6V541
	h3.6V544.9z M213.1,544.9h-3.6V541h3.6V544.9z M220.4,544.9h-3.6V541h3.6V544.9z M243.7,545l4,16.6l-7.6-15.3l-7.6,15.3l4-16.6
	l-15.6,6.8l13.7-10.1l-16.4-4.8l17,1.1l-9.4-14.2l12.4,11.8l1.9-17l1.9,17l12.4-11.8l-9.4,14.2l17-1.1l-16.4,4.8l13.7,10.1
	L243.7,545z M224.1,544.9V541h3.6v3.9H224.1z"/>
<g>
	<path class="st1" d="M592.9,513.7L581.3,570h-12.6l-7.1-34.7H549v-6.3c0-0.6-0.2-0.9-0.3-1.1c-0.1,0-0.2,0-0.2,0
		c-0.1,0.4-0.2,0.9-0.2,1.7v24.9c0,0.3,0,0.7,0.1,1.1c0.1,0,0.1,0,0.2,0c0,0,0.1,0,0.3-0.1c0,0,0,0,0-0.1c0,0,0.1-0.2,0.1-0.8v-6.3
		h14.8v6.9c0,2-0.4,4-1.2,5.8c-0.8,1.8-1.8,3.4-3.2,4.8c-1.3,1.4-2.9,2.5-4.7,3.3c-1.9,0.8-3.9,1.3-6,1.3c-1.7,0-3.4-0.2-5-0.7
		c-1.9-0.5-3.6-1.4-5.2-2.6c-1.5-1.3-2.8-2.9-3.8-4.9c-1-2-1.5-4.4-1.5-7.2v-26.8c0-2.1,0.4-4.1,1.1-5.9c0.7-1.9,1.8-3.5,3.2-4.9
		c1.4-1.4,3-2.4,4.9-3.2c1.9-0.8,3.9-1.1,6.1-1.1c2.1,0,4.1,0.4,6,1.2c1.1,0.5,2.2,1.1,3.1,1.8l-0.5-2.5h15.5l2.3,14l2.3-14h15.4
		c-7.5-8.6-18.5-14.1-30.8-14.1c-22.5,0-40.7,18.2-40.7,40.7s18.2,40.7,40.7,40.7s40.7-18.2,40.7-40.7
		C602.6,530,599,520.8,592.9,513.7z"/>
	<g>
		<path class="st1" d="M559.9,555.3c0,1.5-0.3,2.9-0.9,4.3c-0.6,1.4-1.4,2.6-2.4,3.6c-1,1-2.2,1.8-3.5,2.5c-1.3,0.6-2.8,0.9-4.3,0.9
			c-1.3,0-2.7-0.2-4-0.5c-1.4-0.4-2.6-1-3.7-1.9s-2-2.1-2.7-3.5c-0.7-1.5-1.1-3.3-1.1-5.5v-26.8c0-1.6,0.3-3.1,0.8-4.4
			c0.5-1.4,1.3-2.6,2.3-3.6c1-1,2.2-1.8,3.6-2.4c1.4-0.6,2.9-0.9,4.6-0.9c1.6,0,3.1,0.3,4.4,0.9c1.4,0.6,2.6,1.4,3.6,2.4
			c1,1,1.8,2.3,2.4,3.7c0.6,1.4,0.9,3,0.9,4.7v2.7h-7v-2.3c0-1.4-0.4-2.6-1.2-3.6c-0.8-1-1.8-1.5-3.1-1.5c-1.7,0-2.9,0.5-3.5,1.6
			c-0.6,1.1-0.9,2.4-0.9,4.1v24.9c0,1.4,0.3,2.6,0.9,3.6c0.6,1,1.7,1.4,3.3,1.4c0.5,0,0.9-0.1,1.5-0.2c0.5-0.2,1-0.4,1.4-0.8
			c0.4-0.4,0.8-0.9,1.1-1.5c0.3-0.6,0.4-1.4,0.4-2.4v-2.4h7V555.3z"/>
		<polygon class="st1" points="578.1,566.1 571.9,566.1 562,517.5 569.4,517.5 575,551.4 575.1,551.4 580.7,517.5 588.1,517.5 		"/>
	</g>
</g>
<g>
	<path class="st1" d="M201.8,444.9c2.9,0.7,5.1,2,6.8,3.9c1.6,1.9,2.5,4.3,2.5,6.9c0,3.9-1.4,7-4.3,9.4s-6.3,3.5-10.3,3.5h-12.3
		v-43.2h12c4.2,0,7.4,0.9,9.8,2.7c2.3,1.8,3.5,4.4,3.5,7.7c0,2-0.7,3.9-2,5.5c-1.4,1.6-3.2,2.7-5.6,3.5V444.9z M189.2,442.6h5.9
		c6.2,0,9.2-2.2,9.2-6.6c0-2-0.8-3.5-2.3-4.6c-1.5-1.1-3.7-1.6-6.7-1.6h-6.2V442.6z M189.2,464.3h5.7c3.3,0,6-0.8,7.9-2.3
		c2-1.5,2.9-3.6,2.9-6.2c0-2.8-1-5-2.9-6.5c-1.9-1.5-4.7-2.3-8.3-2.3h-5.3V464.3z"/>
	<path class="st1" d="M251.4,468.6h-6.3L232.4,449h-5.6v19.6h-5v-43.2h12.2c4.1,0,7.4,1,9.7,3c2.4,2,3.6,4.8,3.6,8.3
		c0,2.6-0.9,5-2.6,7c-1.7,2.1-4.1,3.4-7.2,4.2L251.4,468.6z M226.9,444.6h6.3c2.7,0,4.8-0.7,6.5-2.2c1.7-1.4,2.5-3.3,2.5-5.4
		c0-4.8-2.9-7.2-8.8-7.2h-6.5V444.6z"/>
	<path class="st1" d="M281.5,468.6h-19.6v-4.4h7.4v-34.5h-7.4v-4.4h19.6v4.4h-7.2v34.5h7.2V468.6z"/>
	<path class="st1" d="M326.8,468.6h-5.3l-4.8-15.1h-14.2l-4.8,15.1h-5.2l14.1-43.2h6L326.8,468.6z M315.3,449.1l-5.7-17.9l-5.6,17.9
		H315.3z"/>
	<path class="st1" d="M360.3,468.6h-5.6l-15.5-34.1v34.1h-5v-43.2h5.6l15.6,33.8v-33.8h4.9V468.6z"/>
	<path class="st1" d="M439.7,468.6h-6.3L420.8,449h-5.6v19.6h-5v-43.2h12.2c4.1,0,7.4,1,9.7,3s3.6,4.8,3.6,8.3c0,2.6-0.9,5-2.6,7
		c-1.7,2.1-4.1,3.4-7.2,4.2L439.7,468.6z M415.2,444.6h6.3c2.7,0,4.8-0.7,6.5-2.2c1.7-1.4,2.5-3.3,2.5-5.4c0-4.8-2.9-7.2-8.8-7.2
		h-6.5V444.6z"/>
	<path class="st1" d="M460.2,424.6c4.8,0,8.5,1.9,11.1,5.7c2.5,3.8,3.8,9.4,3.8,16.7c0,7.3-1.3,12.8-3.8,16.7
		c-2.5,3.8-6.2,5.8-11.1,5.8c-4.8,0-8.5-1.9-11-5.7s-3.8-9.4-3.8-16.7c0-7.3,1.3-12.9,3.8-16.7C451.7,426.5,455.3,424.6,460.2,424.6
		z M460.2,465c6.4,0,9.6-6,9.6-18c0-12-3.2-18.1-9.6-18.1c-3.1,0-5.5,1.6-7.1,4.7s-2.4,7.6-2.4,13.4c0,5.9,0.8,10.3,2.4,13.4
		S457.1,465,460.2,465z"/>
	<path class="st1" d="M510.5,468.6h-23.5v-43.2h5v38.9h18.5V468.6z"/>
	<path class="st1" d="M549.6,465.9c-3.4,2.3-7.3,3.5-11.8,3.5c-5.6,0-9.9-1.9-12.8-5.8c-2.9-3.8-4.4-9.4-4.4-16.7
		c0-7,1.4-12.5,4.2-16.5s7.1-6,12.9-6c2.1,0,4.1,0.3,6.2,0.8c2,0.5,3.7,1.2,4.9,2.1l-1.7,4c-2.9-1.6-6-2.5-9.5-2.5
		c-4,0-6.9,1.4-8.9,4.3c-1.9,2.9-2.9,7.5-2.9,13.7c0,12,3.9,18,11.8,18c3.3,0,6.7-1,10.2-3.1L549.6,465.9z"/>
	<path class="st1" d="M586.3,429l-20.6,35.3h20.2v4.4H560v-3.5l20.5-35.3h-19.6v-4.4h25.4V429z"/>
	<path class="st1" d="M627,425.4l-13.5,24.7v18.5h-5v-18.5L595,425.4h5.7l10.3,19.5l10.4-19.5H627z"/>
	<path class="st1" d="M661.7,468.6h-5.6l-15.5-34.1v34.1h-5v-43.2h5.6l15.6,33.8v-33.8h4.9V468.6z"/>
	<path class="st1" d="M695.5,430.2c-2.6-0.9-5-1.3-7.3-1.3c-2.6,0-4.7,0.6-6.4,1.8c-1.6,1.2-2.5,2.9-2.5,5.1c0,2.6,2.2,4.9,6.5,6.9
		c3.2,1.5,5.3,2.5,6.3,3.1c1,0.6,2.1,1.4,3.1,2.4c1.1,1,1.9,2.2,2.6,3.5c0.6,1.4,1,2.9,1,4.6c0,4.2-1.4,7.5-4.2,9.8
		c-2.8,2.3-6.2,3.5-10,3.5c-3.7,0-7-0.7-9.8-2.2l1-4.3c3.3,1.5,6.2,2.2,8.6,2.2c2.9,0,5.2-0.7,6.9-2.2s2.6-3.5,2.6-6.1
		c0-1.9-0.6-3.6-1.7-4.9s-3.2-2.7-6.2-4.1c-3.1-1.4-5.1-2.4-6-2.9s-1.8-1.2-2.7-2.2c-0.9-0.9-1.6-2-2.1-3.1
		c-0.5-1.1-0.7-2.4-0.7-3.7c0-3.6,1.3-6.4,3.9-8.4c2.6-2,5.8-3,9.8-3c2.9,0,5.7,0.4,8.6,1.3L695.5,430.2z"/>
	<path class="st1" d="M742.1,468.6h-6.3l-14.6-21.2l-4.6,5v16.2h-5v-43.2h5v20.7l19.2-20.7h5.8l-16.9,18.3L742.1,468.6z"/>
	<path class="st1" d="M771.2,468.6h-19.6v-4.4h7.4v-34.5h-7.4v-4.4h19.6v4.4h-7.2v34.5h7.2V468.6z"/>
</g>
<g>
	<g>
		<g>
			<g>
				<path class="st1" d="M725.5,534v4.6h9.2V534c0-2.9,2.4-5.3,5.3-5.3h16.9c-4.4-10.2-14.6-17.4-26.4-17.4s-22,7.2-26.4,17.4h16.1
					C723.1,528.7,725.5,531.1,725.5,534z"/>
				<path class="st1" d="M740,552.5c-2.9,0-5.3-2.4-5.3-5.3v-4.6h-9.2v4.6c0,2.9-2.4,5.3-5.3,5.3h-15.5c4.6,9.6,14.5,16.3,25.8,16.3
					s21.2-6.6,25.8-16.3H740z"/>
			</g>
			<g>
				<path class="st1" d="M730.6,499.5c-22.5,0-40.7,18.2-40.7,40.7c0,22.5,18.2,40.7,40.7,40.7s40.7-18.2,40.7-40.7
					C771.2,517.7,753,499.5,730.6,499.5z M761.4,552.5h-0.7c-4.9,11.9-16.6,20.3-30.2,20.3c-13.6,0-25.3-8.4-30.2-20.3h-1.5
					c-2.9,0-5.3-2.4-5.3-5.3V534c0-2.9,2.4-5.3,5.3-5.3h1.1c4.6-12.5,16.6-21.4,30.7-21.4c14,0,26.1,8.9,30.7,21.4h0.3
					c2.9,0,5.3,2.4,5.3,5.3v13.1C766.7,550.1,764.3,552.5,761.4,552.5z"/>
			</g>
		</g>
	</g>
	<path class="st2" d="M698.7,532.7c-0.7,0-1.3,0.6-1.3,1.3v13.1c0,0.7,0.6,1.3,1.3,1.3h21.5c0.7,0,1.3-0.6,1.3-1.3V534
		c0-0.7-0.6-1.3-1.3-1.3H698.7z"/>
	<path class="st2" d="M740,532.7c-0.7,0-1.3,0.6-1.3,1.3v13.1c0,0.7,0.6,1.3,1.3,1.3h21.5c0.7,0,1.3-0.6,1.3-1.3V534
		c0-0.7-0.6-1.3-1.3-1.3H740z"/>
</g>
</svg>
